<?xml version="1.0" ?><!DOCTYPE svg  PUBLIC '-//W3C//DTD SVG 20010904//EN'  'http://www.w3.org/TR/2001/REC-SVG-20010904/DTD/svg10.dtd' [
	<!ENTITY stroke_color "#666666">
	<!ENTITY fill_color "#ffffff">
]><svg height="512.000000pt" preserveAspectRatio="xMidYMid meet" version="1.0" viewBox="0 0 512.000000 512.000000" width="512.000000pt" xmlns="http://www.w3.org/2000/svg">
<metadata>
Created by potrace 1.12, written by Peter Selinger 2001-2015
</metadata>
<g fill="#000000" stroke="none" transform="translate(0.000000,512.000000) scale(0.100000,-0.100000)">
<path d="M2345 5063 c-794 -69 -1519 -517 -1931 -1193 -606 -995 -455 -2268 366 -3090 388 -390 873 -631 1437 -717 138 -21 517 -23 653 -4 447 62 857 229 1203 489 487 368 837 924 951 1512 37 190 46 288 46 500 0 298 -34 508 -126 790 -307 936 -1156 1614 -2138 1709 -101 10 -367 12 -461 4z m371 -453 c412 -34 818 -193 1131 -445 82 -66 235 -218 305 -302 343 -418 511 -971 458 -1504 -88 -866 -692 -1577 -1525 -1794 -188 -49 -321 -66 -524 -66 -396 0 -744 96 -1075 298 -614 374 -986 1038 -986 1758 1 1076 826 1971 1895 2054 149 12 180 12 321 1z"/>
<path d="M2260 3565 l0 -65 -125 0 -125 0 0 -65 0 -65 -65 0 -65 0 0 -65 0 -65 -125 0 -125 0 0 -65 0 -65 -65 0 -65 0 0 -180 0 -180 65 0 65 0 0 -70 0 -70 65 0 65 0 0 -130 0 -130 65 0 65 0 0 -65 0 -65 120 0 120 0 0 -65 0 -65 315 0 315 0 0 65 0 65 370 0 370 0 0 195 0 195 65 0 66 0 -3 68 -3 67 -62 3 -63 3 0 64 0 65 -55 0 -55 0 0 180 0 180 -65 0 -65 0 0 65 0 65 -65 0 -65 0 0 65 0 65 -65 0 -65 0 0 65 0 65 -370 0 -370 0 0 -65z m370 -135 l0 -70 65 0 65 0 0 70 0 70 120 0 120 0 0 -65 0 -65 65 0 65 0 0 -65 0 -65 65 0 65 0 0 -180 0 -180 -250 0 -250 0 0 65 0 65 -65 0 -65 0 0 175 0 175 -65 0 -65 0 0 -180 0 -180 65 0 65 0 0 -65 0 -65 65 0 65 0 0 -60 0 -60 -65 0 -65 0 0 -70 0 -70 -65 0 -65 0 0 -65 0 -65 65 0 65 0 0 -65 0 -65 65 0 65 0 0 -65 0 -65 -310 0 -310 0 0 65 0 65 -125 0 -125 0 0 65 0 65 130 0 130 0 0 65 0 65 60 0 60 0 0 70 0 70 -65 0 -65 0 0 -70 0 -70 -185 0 -185 0 0 48 c0 88 -4 92 -76 92 l-64 0 0 180 0 180 255 0 255 0 0 65 0 65 -65 0 -65 0 0 65 0 65 130 0 130 0 0 65 0 65 180 0 180 0 0 -70z m860 -750 l0 -60 -360 0 -360 0 0 60 0 60 360 0 360 0 0 -60z m-130 -260 l0 -60 -300 0 -300 0 0 44 c0 82 -23 76 306 76 l294 0 0 -60z"/>
<path d="M3000 3110 l0 -130 65 0 65 0 0 130 0 130 -65 0 -65 0 0 -130z"/>
<path d="M2140 3045 l0 -65 65 0 65 0 0 -115 0 -115 65 0 65 0 0 115 0 115 -65 0 -65 0 0 65 0 65 -65 0 -65 0 0 -65z"/>
</g>
</svg>