<?xml version="1.0" ?><!DOCTYPE svg  PUBLIC '-//W3C//DTD SVG 20010904//EN'  'http://www.w3.org/TR/2001/REC-SVG-20010904/DTD/svg10.dtd' [
	<!ENTITY stroke_color "#666666">
	<!ENTITY fill_color "#ffffff">
]><svg height="413.000000pt" preserveAspectRatio="xMidYMid meet" version="1.0" viewBox="0 0 428.000000 413.000000" width="428.000000pt" xmlns="http://www.w3.org/2000/svg">
<metadata>
Created by potrace 1.12, written by Peter Selinger 2001-2015
</metadata>
<g fill="#000000" stroke="none" transform="translate(0.000000,413.000000) scale(0.100000,-0.100000)">
<path d="M2380 4106 c513 -75 946 -290 1301 -646 193 -193 363 -452 469 -712 13 -32 25 -56 28 -54 6 7 -76 194 -130 296 -171 320 -447 613 -759 807 -271 169 -649 299 -924 317 l-80 6 95 -14z"/>
<path d="M2450 3991 c201 -47 353 -102 533 -192 232 -116 402 -239 663 -479 39 -36 13 -8 -58 62 -255 252 -538 432 -843 536 -106 36 -321 92 -350 91 -11 0 14 -9 55 -18z"/>
<path d="M2257 3930 c382 -28 809 -210 1137 -484 92 -77 112 -87 35 -18 -339 305 -769 494 -1157 507 l-127 4 112 -9z"/>
<path d="M1950 3824 c-485 -32 -856 -170 -1092 -409 -68 -69 -72 -85 -23 -85 l36 0 -38 -45 c-21 -26 -46 -45 -58 -45 -14 0 -16 -3 -7 -8 9 -6 -3 -27 -44 -78 -30 -38 -79 -105 -109 -149 -58 -87 -150 -254 -143 -260 2 -3 21 27 42 65 51 95 139 227 224 337 l71 91 51 4 c27 1 50 2 50 1 0 -1 -35 -47 -77 -102 -43 -55 -102 -139 -131 -188 -61 -102 -46 -86 55 59 40 57 97 133 128 171 52 62 58 67 96 67 35 0 39 -2 30 -17 -5 -10 -21 -29 -36 -43 -30 -28 -116 -142 -135 -180 -17 -33 -10 -26 42 45 24 33 70 88 102 123 56 59 60 62 106 62 46 0 253 -32 295 -45 18 -6 18 -5 3 5 -22 13 -171 46 -256 55 l-64 7 34 35 33 35 83 -7 c174 -13 318 -50 383 -96 40 -28 44 -26 -146 -73 -273 -68 -500 -162 -673 -278 -105 -71 -255 -223 -331 -337 -78 -117 -134 -228 -126 -248 3 -9 3 -30 -1 -48 -4 -25 -14 -37 -42 -49 -21 -9 -48 -26 -62 -37 -20 -16 -15 -15 27 5 64 32 63 32 63 3 0 -16 -10 -28 -32 -40 -31 -16 -31 -16 -5 -11 l27 6 1 -88 c0 -49 4 -109 8 -134 6 -33 8 -9 9 89 1 98 5 137 14 143 28 17 35 8 32 -49 l-3 -58 12 64 c11 60 14 65 47 78 l35 13 -32 -5 c-30 -4 -33 -2 -33 20 0 21 8 27 57 40 32 9 63 18 68 21 15 6 -85 -7 -102 -13 -12 -5 -13 2 -7 33 11 63 19 70 101 92 68 19 239 52 265 52 4 0 -17 -30 -49 -67 -125 -148 -219 -323 -249 -462 -16 -75 -18 -151 -5 -151 5 0 34 12 66 26 51 23 185 46 185 32 0 -3 -14 -36 -31 -74 -71 -157 -102 -314 -80 -415 7 -31 18 -65 25 -75 13 -17 18 -14 78 46 127 128 311 227 523 280 138 35 185 38 185 13 1 -10 7 -29 14 -42 13 -24 12 -26 -58 -74 -182 -126 -304 -281 -367 -467 -34 -104 -51 -222 -28 -204 172 136 289 183 479 191 l116 6 11 -25 c6 -14 26 -42 43 -61 l31 -36 -32 -48 c-70 -103 -205 -207 -351 -273 -43 -19 -78 -38 -78 -42 0 -14 138 -8 218 8 94 19 201 63 279 113 l58 37 16 -110 c19 -132 33 -165 79 -188 122 -58 481 -46 778 27 366 89 727 308 973 588 102 117 175 225 161 239 -16 16 -136 27 -292 28 -222 0 -730 -27 -852 -46 -36 -5 -38 -4 -38 21 0 32 -13 57 -56 111 -31 37 -33 43 -21 68 l12 26 85 -6 c56 -5 120 -19 190 -42 95 -32 118 -36 245 -40 122 -4 153 -1 230 18 172 42 371 156 461 265 l38 45 26 -25 c80 -76 308 -73 374 6 14 17 26 37 26 44 0 29 -59 82 -107 96 -62 18 -176 15 -231 -5 -24 -9 -42 -12 -40 -8 2 4 19 39 39 77 104 201 145 510 91 685 -80 256 -224 473 -526 790 -196 206 -228 233 -268 225 -19 -5 -52 6 -121 39 -149 72 -551 202 -677 220 -113 16 -311 25 -400 20z m1252 -481 c33 -32 78 -84 100 -115 l39 -58 -28 0 c-60 0 -227 -31 -293 -54 l-70 -24 6 27 c20 89 140 281 176 281 5 0 37 -26 70 -57z m241 -470 c101 -32 192 -133 255 -286 46 -111 48 -123 19 -131 -87 -21 -227 -301 -227 -451 0 -89 38 -99 106 -29 52 54 125 197 150 294 9 36 18 72 21 80 2 8 19 -20 37 -62 43 -100 71 -138 101 -138 22 0 23 -3 18 -37 -9 -61 -53 -193 -85 -256 -26 -52 -30 -56 -44 -42 -21 20 -63 19 -164 -6 -51 -13 -119 -22 -170 -22 -103 -1 -154 19 -294 117 -105 73 -119 96 -158 249 -53 209 13 500 144 643 91 99 162 118 291 77z m-1682 -643 c78 -24 135 -61 216 -141 67 -65 75 -79 43 -79 -33 0 -93 36 -122 73 -37 48 -103 78 -171 78 -106 2 -159 -22 -236 -106 l-44 -47 8 48 c3 27 19 71 33 98 49 91 142 117 273 76z m54 -106 c16 -7 40 -23 53 -37 l23 -24 -57 -6 c-34 -3 -64 -13 -73 -23 -15 -15 -14 -16 6 -5 33 17 123 13 168 -8 34 -15 37 -19 20 -24 -174 -51 -197 -60 -244 -97 -91 -72 -231 -287 -231 -356 0 -38 -22 -25 -39 23 -13 36 -13 51 2 124 18 93 17 111 -3 47 -19 -61 -26 -65 -49 -27 -42 69 -21 148 78 287 28 39 70 84 92 99 77 51 173 61 254 27z m1025 -35 c52 -19 122 -62 250 -154 254 -182 316 -198 550 -144 149 35 175 18 126 -84 -45 -96 -175 -205 -331 -278 -232 -109 -521 -106 -746 6 -108 54 -142 81 -129 105 35 66 -28 196 -111 231 -35 14 -37 40 -10 128 27 88 84 159 151 189 69 31 170 31 250 1z m-678 -128 c44 -28 87 -86 103 -138 9 -31 -5 -29 -65 8 -68 42 -74 32 -7 -11 28 -19 80 -62 115 -95 71 -70 81 -70 20 0 l-42 48 70 -5 c43 -3 83 -12 103 -24 72 -43 113 -154 76 -210 -21 -32 -91 -64 -220 -100 -55 -15 -104 -31 -110 -36 -12 -11 25 -10 61 1 16 5 73 24 127 41 55 17 101 29 104 26 16 -16 -12 -81 -51 -121 -48 -47 -122 -77 -241 -95 -38 -6 -71 -13 -74 -16 -11 -10 9 -11 78 -2 63 7 123 24 193 53 15 6 16 3 8 -25 -5 -18 -14 -38 -20 -45 -22 -27 -113 -40 -277 -40 -90 0 -163 -3 -163 -6 0 -12 62 -19 169 -19 104 -1 106 -1 84 -19 -53 -44 -305 -53 -432 -15 -94 27 -188 135 -248 284 -36 89 -34 150 7 230 46 92 110 179 175 238 49 45 70 56 153 81 125 38 126 38 198 40 50 1 67 -4 106 -28z m354 -653 c39 -47 56 -92 45 -121 -21 -56 -209 -175 -351 -223 -75 -26 -251 -26 -334 -1 -68 21 -116 63 -116 102 l0 26 73 -8 c197 -22 363 -1 404 51 12 15 37 26 78 34 70 14 115 53 115 102 0 26 32 70 51 70 4 0 20 -15 35 -32z m159 -145 c-35 -90 -48 -175 -48 -318 0 -155 13 -244 53 -361 11 -31 19 -59 17 -61 -7 -6 -159 -43 -206 -49 l-49 -6 -16 48 c-35 110 -52 310 -37 453 17 157 22 171 82 206 28 17 62 44 76 60 28 33 50 42 102 44 28 1 32 -2 26 -16z"/>
<path d="M621 3470 c-314 -312 -475 -589 -538 -935 -25 -134 -24 -515 1 -693 10 -73 21 -131 23 -128 2 2 -3 64 -11 137 -35 299 -30 517 14 736 63 306 221 572 524 881 44 45 78 82 75 82 -4 0 -43 -36 -88 -80z"/>
<path d="M142 2095 c-6 -318 96 -813 213 -1044 39 -79 37 -60 -6 39 -98 228 -177 609 -198 961 -8 127 -8 129 -9 44z"/>
<path d="M794 1276 c-33 -24 -72 -57 -88 -74 -16 -17 -33 -29 -38 -26 -4 3 -8 0 -8 -5 0 -6 -16 -29 -36 -51 -20 -22 -30 -38 -22 -35 12 5 18 -6 27 -42 16 -61 65 -164 88 -185 11 -10 0 20 -26 74 -36 74 -42 95 -35 116 15 42 29 35 48 -23 21 -66 95 -217 130 -264 36 -49 32 -33 -9 36 -40 67 -125 266 -125 293 0 10 23 33 55 55 30 21 55 40 55 42 0 10 -24 -1 -70 -32 -29 -19 -54 -35 -56 -35 -2 0 -4 9 -4 19 0 18 29 47 155 155 48 41 23 30 -41 -18z"/>
<path d="M4057 1115 c-218 -427 -598 -756 -1099 -951 -54 -20 -96 -39 -94 -41 9 -9 210 74 341 140 387 196 659 458 841 810 36 71 64 130 62 132 -2 2 -25 -39 -51 -90z"/>
<path d="M3584 659 c-16 -17 -65 -59 -109 -94 -341 -267 -739 -406 -1245 -435 l-155 -9 175 4 c400 9 732 103 1043 296 116 72 299 218 320 255 13 22 3 17 -29 -17z"/>
<path d="M550 621 c196 -240 606 -462 1037 -561 70 -16 137 -29 148 -29 11 0 -26 11 -82 24 -163 38 -428 131 -571 200 -209 101 -360 206 -506 351 -66 65 -67 66 -26 15z"/>
</g>
</svg>